<?xml version="1.0" encoding="UTF-8" standalone="no"?>
<!DOCTYPE svg PUBLIC "-//W3C//DTD SVG 1.1//EN"
 "http://www.w3.org/Graphics/SVG/1.1/DTD/svg11.dtd">
<!-- Generated by graphviz version 14.1.2 (20260124.0452)
 -->
<!-- Title: NYCDemoArch Pages: 1 -->
<svg width="3107pt" height="1290pt"
 viewBox="0.00 0.00 3107.00 1290.00" xmlns="http://www.w3.org/2000/svg" xmlns:xlink="http://www.w3.org/1999/xlink">
<g id="graph0" class="graph" transform="scale(2.77778 2.77778) rotate(0) translate(28.8 450.15)">
<title>NYCDemoArch</title>
<polygon fill="#ffffff" stroke="none" points="-28.8,14.4 -28.8,-450.15 1089.73,-450.15 1089.73,14.4 -28.8,14.4"/>
<text xml:space="preserve" text-anchor="start" x="324.59" y="-405.05" font-family="Helvetica,sans-Serif" font-weight="bold" font-size="26.00" fill="#1b3139">dbxdemonyc.com — Architecture</text>
<text xml:space="preserve" text-anchor="start" x="368.46" y="-387.15" font-family="Helvetica,sans-Serif" font-size="13.00" fill="#888888">Live Event Registration App — Powered by Databricks</text>
<g id="clust1" class="cluster">
<title>cluster_users</title>
<path fill="#eeede9" stroke="#1b3139" stroke-width="1.5" d="M20,-214C20,-214 115.53,-214 115.53,-214 121.53,-214 127.53,-220 127.53,-226 127.53,-226 127.53,-354 127.53,-354 127.53,-360 121.53,-366 115.53,-366 115.53,-366 20,-366 20,-366 14,-366 8,-360 8,-354 8,-354 8,-226 8,-226 8,-220 14,-214 20,-214"/>
<text xml:space="preserve" text-anchor="start" x="48.26" y="-351.55" font-family="Helvetica,sans-Serif" font-weight="bold" font-size="11.00" fill="#1b3139">USERS</text>
</g>
<g id="clust2" class="cluster">
<title>cluster_app</title>
<path fill="#eef2ff" stroke="#3b6cf5" stroke-width="1.5" d="M180.53,-272C180.53,-272 471.59,-272 471.59,-272 477.59,-272 483.59,-278 483.59,-284 483.59,-284 483.59,-360 483.59,-360 483.59,-366 477.59,-372 471.59,-372 471.59,-372 180.53,-372 180.53,-372 174.53,-372 168.53,-366 168.53,-360 168.53,-360 168.53,-284 168.53,-284 168.53,-278 174.53,-272 180.53,-272"/>
<text xml:space="preserve" text-anchor="start" x="288.93" y="-357.55" font-family="Helvetica,sans-Serif" font-weight="bold" font-size="11.00" fill="#3b6cf5">APPLICATION</text>
</g>
<g id="clust3" class="cluster">
<title>cluster_lakebase</title>
<path fill="#eefff6" stroke="#00a972" stroke-width="2" d="M536.59,-279C536.59,-279 814.4,-279 814.4,-279 820.4,-279 826.4,-285 826.4,-291 826.4,-291 826.4,-353 826.4,-353 826.4,-359 820.4,-365 814.4,-365 814.4,-365 536.59,-365 536.59,-365 530.59,-365 524.59,-359 524.59,-353 524.59,-353 524.59,-291 524.59,-291 524.59,-285 530.59,-279 536.59,-279"/>
<text xml:space="preserve" text-anchor="start" x="644.37" y="-350.55" font-family="Helvetica,sans-Serif" font-weight="bold" font-size="11.00" fill="#00a972">LAKEBASE</text>
</g>
<g id="clust4" class="cluster">
<title>cluster_databricks</title>
<path fill="#fff5f3" stroke="#ff3621" stroke-width="2.5" d="M726.12,-8C726.12,-8 1040.93,-8 1040.93,-8 1046.93,-8 1052.93,-14 1052.93,-20 1052.93,-20 1052.93,-259 1052.93,-259 1052.93,-265 1046.93,-271 1040.93,-271 1040.93,-271 726.12,-271 726.12,-271 720.12,-271 714.12,-265 714.12,-259 714.12,-259 714.12,-20 714.12,-20 714.12,-14 720.12,-8 726.12,-8"/>
<text xml:space="preserve" text-anchor="start" x="809.27" y="-255.6" font-family="Helvetica,sans-Serif" font-weight="bold" font-size="12.00" fill="#ff3621">DATABRICKS PLATFORM</text>
</g>
<!-- attendees -->
<g id="node1" class="node">
<title>attendees</title>
<path fill="#ffffff" stroke="#1b3139" stroke-width="1.8" d="M105.53,-261.76C105.53,-261.76 30,-261.76 30,-261.76 24,-261.76 18,-255.76 18,-249.76 18,-249.76 18,-236.24 18,-236.24 18,-230.24 24,-224.24 30,-224.24 30,-224.24 105.53,-224.24 105.53,-224.24 111.53,-224.24 117.53,-230.24 117.53,-236.24 117.53,-236.24 117.53,-249.76 117.53,-249.76 117.53,-255.76 111.53,-261.76 105.53,-261.76"/>
<text xml:space="preserve" text-anchor="start" x="30.64" y="-239.65" font-family="Helvetica,sans-Serif" font-size="13.00">📱</text>
<text xml:space="preserve" text-anchor="start" x="49.39" y="-238.55" font-family="Helvetica,sans-Serif" font-weight="bold" font-size="11.00"> Attendees</text>
</g>
<!-- react -->
<g id="node3" class="node">
<title>react</title>
<path fill="#ffffff" stroke="#3b6cf5" stroke-width="1.8" d="M294.81,-341.51C294.81,-341.51 190.53,-341.51 190.53,-341.51 184.53,-341.51 178.53,-335.51 178.53,-329.51 178.53,-329.51 178.53,-294.49 178.53,-294.49 178.53,-288.49 184.53,-282.49 190.53,-282.49 190.53,-282.49 294.81,-282.49 294.81,-282.49 300.81,-282.49 306.81,-288.49 306.81,-294.49 306.81,-294.49 306.81,-329.51 306.81,-329.51 306.81,-335.51 300.81,-341.51 294.81,-341.51"/>
<text xml:space="preserve" text-anchor="start" x="198.42" y="-321.35" font-family="Helvetica,sans-Serif" font-weight="bold" font-size="12.00">React Frontend</text>
<text xml:space="preserve" text-anchor="start" x="190.17" y="-306.45" font-family="Helvetica,sans-Serif" font-size="9.00" fill="#666666">Registration + Dashboard</text>
<text xml:space="preserve" text-anchor="start" x="208.92" y="-292.65" font-family="Helvetica,sans-Serif" font-size="8.00" fill="#3b6cf5">AWS Amplify Static</text>
</g>
<!-- attendees&#45;&gt;react -->
<g id="edge4" class="edge">
<title>attendees&#45;&gt;react</title>
<path fill="none" stroke="#888888" stroke-width="1.5" d="M117.85,-262.59C133.6,-268.87 151.41,-275.98 168.5,-282.8"/>
<polygon fill="#888888" stroke="#888888" stroke-width="1.5" points="167.33,-285.35 175.8,-285.71 169.4,-280.15 167.33,-285.35"/>
</g>
<!-- presenter -->
<g id="node2" class="node">
<title>presenter</title>
<path fill="#ffffff" stroke="#1b3139" stroke-width="1.8" d="M104.78,-335.76C104.78,-335.76 30.75,-335.76 30.75,-335.76 24.75,-335.76 18.75,-329.76 18.75,-323.76 18.75,-323.76 18.75,-310.24 18.75,-310.24 18.75,-304.24 24.75,-298.24 30.75,-298.24 30.75,-298.24 104.78,-298.24 104.78,-298.24 110.78,-298.24 116.78,-304.24 116.78,-310.24 116.78,-310.24 116.78,-323.76 116.78,-323.76 116.78,-329.76 110.78,-335.76 104.78,-335.76"/>
<text xml:space="preserve" text-anchor="start" x="31.39" y="-313.65" font-family="Helvetica,sans-Serif" font-size="13.00">🎤</text>
<text xml:space="preserve" text-anchor="start" x="50.14" y="-312.55" font-family="Helvetica,sans-Serif" font-weight="bold" font-size="11.00"> Presenter</text>
</g>
<!-- presenter&#45;&gt;react -->
<g id="edge5" class="edge">
<title>presenter&#45;&gt;react</title>
<path fill="none" stroke="#888888" stroke-width="1.5" d="M117.39,-315.59C133.09,-315.14 150.86,-314.63 167.95,-314.13"/>
<polygon fill="#888888" stroke="#888888" stroke-width="1.5" points="167.73,-316.94 175.64,-313.91 167.57,-311.34 167.73,-316.94"/>
</g>
<!-- express -->
<g id="node4" class="node">
<title>express</title>
<path fill="#ffffff" stroke="#3b6cf5" stroke-width="1.8" d="M461.59,-341.51C461.59,-341.51 379.81,-341.51 379.81,-341.51 373.81,-341.51 367.81,-335.51 367.81,-329.51 367.81,-329.51 367.81,-294.49 367.81,-294.49 367.81,-288.49 373.81,-282.49 379.81,-282.49 379.81,-282.49 461.59,-282.49 461.59,-282.49 467.59,-282.49 473.59,-288.49 473.59,-294.49 473.59,-294.49 473.59,-329.51 473.59,-329.51 473.59,-335.51 467.59,-341.51 461.59,-341.51"/>
<text xml:space="preserve" text-anchor="start" x="379.45" y="-321.35" font-family="Helvetica,sans-Serif" font-weight="bold" font-size="12.00">Express.js API</text>
<text xml:space="preserve" text-anchor="start" x="380.95" y="-306.45" font-family="Helvetica,sans-Serif" font-size="9.00" fill="#666666">REST · Auth · Proxy</text>
<text xml:space="preserve" text-anchor="start" x="380.2" y="-292.65" font-family="Helvetica,sans-Serif" font-size="8.00" fill="#3b6cf5">AWS Amplify Compute</text>
</g>
<!-- react&#45;&gt;express -->
<g id="edge6" class="edge">
<title>react&#45;&gt;express</title>
<path fill="none" stroke="#1b3139" stroke-width="1.8" d="M307.22,-312C323.3,-312 340.56,-312 356.61,-312"/>
<polygon fill="#1b3139" stroke="#1b3139" stroke-width="1.8" points="356.24,-314.8 364.24,-312 356.24,-309.2 356.24,-314.8"/>
</g>
<!-- lakebase -->
<g id="node5" class="node">
<title>lakebase</title>
<path fill="#ffffff" stroke="#00a972" stroke-width="2" d="M653.12,-334.51C653.12,-334.51 546.59,-334.51 546.59,-334.51 540.59,-334.51 534.59,-328.51 534.59,-322.51 534.59,-322.51 534.59,-301.49 534.59,-301.49 534.59,-295.49 540.59,-289.49 546.59,-289.49 546.59,-289.49 653.12,-289.49 653.12,-289.49 659.12,-289.49 665.12,-295.49 665.12,-301.49 665.12,-301.49 665.12,-322.51 665.12,-322.51 665.12,-328.51 659.12,-334.51 653.12,-334.51"/>
<text xml:space="preserve" text-anchor="start" x="546.23" y="-314.35" font-family="Helvetica,sans-Serif" font-weight="bold" font-size="12.00">Managed Postgres</text>
<text xml:space="preserve" text-anchor="start" x="559.73" y="-299.45" font-family="Helvetica,sans-Serif" font-size="9.00" fill="#666666">PG 17 · Autoscaling</text>
</g>
<!-- express&#45;&gt;lakebase -->
<g id="edge7" class="edge">
<title>express&#45;&gt;lakebase</title>
<path fill="none" stroke="#00a972" stroke-width="2" d="M474.37,-312C489.68,-312 506.72,-312 523.15,-312"/>
<polygon fill="#00a972" stroke="#00a972" stroke-width="2" points="522.81,-314.8 530.81,-312 522.81,-309.2 522.81,-314.8"/>
</g>
<!-- branching -->
<g id="node6" class="node">
<title>branching</title>
<path fill="#d9f5ea" stroke="#00a972" stroke-width="1.8" stroke-dasharray="5,2" d="M804.4,-334.13C804.4,-334.13 750.37,-334.13 750.37,-334.13 744.37,-334.13 738.37,-328.13 738.37,-322.13 738.37,-322.13 738.37,-301.87 738.37,-301.87 738.37,-295.87 744.37,-289.87 750.37,-289.87 750.37,-289.87 804.4,-289.87 804.4,-289.87 810.4,-289.87 816.4,-295.87 816.4,-301.87 816.4,-301.87 816.4,-322.13 816.4,-322.13 816.4,-328.13 810.4,-334.13 804.4,-334.13"/>
<text xml:space="preserve" text-anchor="start" x="750.01" y="-314.93" font-family="Helvetica,sans-Serif" font-weight="bold" font-size="11.00">Branching</text>
<text xml:space="preserve" text-anchor="start" x="757.13" y="-299.82" font-family="Helvetica,sans-Serif" font-size="9.00" fill="#666666">prod / dev</text>
</g>
<!-- lakebase&#45;&gt;branching -->
<g id="edge8" class="edge">
<title>lakebase&#45;&gt;branching</title>
<path fill="none" stroke="#00a972" stroke-width="1.5" stroke-dasharray="5,2" d="M665.72,-312C689.84,-312 716.44,-312 737.52,-312"/>
</g>
<!-- unity -->
<g id="node7" class="node">
<title>unity</title>
<path fill="#ffffff" stroke="#ff3621" stroke-width="1.8" d="M816.65,-195.01C816.65,-195.01 738.12,-195.01 738.12,-195.01 732.12,-195.01 726.12,-189.01 726.12,-183.01 726.12,-183.01 726.12,-158.99 726.12,-158.99 726.12,-152.99 732.12,-146.99 738.12,-146.99 738.12,-146.99 816.65,-146.99 816.65,-146.99 822.65,-146.99 828.65,-152.99 828.65,-158.99 828.65,-158.99 828.65,-183.01 828.65,-183.01 828.65,-189.01 822.65,-195.01 816.65,-195.01"/>
<text xml:space="preserve" text-anchor="start" x="738.76" y="-173.85" font-family="Helvetica,sans-Serif" font-weight="bold" font-size="12.00">Unity Catalog</text>
<text xml:space="preserve" text-anchor="start" x="739.13" y="-157.95" font-family="Helvetica,sans-Serif" font-size="9.00" fill="#666666">Federated Queries</text>
</g>
<!-- lakebase&#45;&gt;unity -->
<g id="edge9" class="edge">
<title>lakebase&#45;&gt;unity</title>
<path fill="none" stroke="#ff3621" stroke-width="2" d="M629.84,-288.72C659.16,-265.17 704.67,-228.6 737.2,-202.48"/>
<polygon fill="#ff3621" stroke="#ff3621" stroke-width="2" points="738.74,-204.83 743.22,-197.64 735.23,-200.46 738.74,-204.83"/>
</g>
<!-- dashboard -->
<g id="node8" class="node">
<title>dashboard</title>
<path fill="#ffffff" stroke="#ff3621" stroke-width="1.8" d="M1012.8,-68.01C1012.8,-68.01 917.77,-68.01 917.77,-68.01 911.77,-68.01 905.77,-62.01 905.77,-56.01 905.77,-56.01 905.77,-31.99 905.77,-31.99 905.77,-25.99 911.77,-19.99 917.77,-19.99 917.77,-19.99 1012.8,-19.99 1012.8,-19.99 1018.8,-19.99 1024.8,-25.99 1024.8,-31.99 1024.8,-31.99 1024.8,-56.01 1024.8,-56.01 1024.8,-62.01 1018.8,-68.01 1012.8,-68.01"/>
<text xml:space="preserve" text-anchor="start" x="918.41" y="-46.85" font-family="Helvetica,sans-Serif" font-weight="bold" font-size="12.00">AI/BI Dashboard</text>
<text xml:space="preserve" text-anchor="start" x="925.16" y="-30.95" font-family="Helvetica,sans-Serif" font-size="9.00" fill="#666666">Embedded via SDK</text>
</g>
<!-- unity&#45;&gt;dashboard -->
<g id="edge1" class="edge">
<title>unity&#45;&gt;dashboard</title>
<path fill="none" stroke="#ff3621" stroke-width="1.5" d="M810.87,-146.19C843.71,-121.1 889.65,-86 889.65,-86 889.65,-86 899.25,-80.6 911.57,-73.67"/>
<polygon fill="#ff3621" stroke="#ff3621" stroke-width="1.5" points="912.86,-76.15 918.46,-69.79 910.12,-71.27 912.86,-76.15"/>
</g>
<!-- genie -->
<g id="node9" class="node">
<title>genie</title>
<path fill="#ffffff" stroke="#ff3621" stroke-width="1.8" d="M987.3,-153.76C987.3,-153.76 943.27,-153.76 943.27,-153.76 937.27,-153.76 931.27,-147.76 931.27,-141.76 931.27,-141.76 931.27,-116.24 931.27,-116.24 931.27,-110.24 937.27,-104.24 943.27,-104.24 943.27,-104.24 987.3,-104.24 987.3,-104.24 993.3,-104.24 999.3,-110.24 999.3,-116.24 999.3,-116.24 999.3,-141.76 999.3,-141.76 999.3,-147.76 993.3,-153.76 987.3,-153.76"/>
<text xml:space="preserve" text-anchor="start" x="948.79" y="-132.6" font-family="Helvetica,sans-Serif" font-weight="bold" font-size="12.00">Genie</text>
<text xml:space="preserve" text-anchor="start" x="943.91" y="-116.7" font-family="Helvetica,sans-Serif" font-size="9.00" fill="#666666">NL → SQL</text>
</g>
<!-- unity&#45;&gt;genie -->
<g id="edge2" class="edge">
<title>unity&#45;&gt;genie</title>
<path fill="none" stroke="#ff3621" stroke-width="1.5" d="M829.18,-159.52C857.91,-153.03 893.45,-145.01 920.86,-138.81"/>
<polygon fill="#ff3621" stroke="#ff3621" stroke-width="1.5" points="921.17,-141.61 928.36,-137.12 919.94,-136.15 921.17,-141.61"/>
</g>
<!-- fmapi -->
<g id="node10" class="node">
<title>fmapi</title>
<path fill="#ffffff" stroke="#ff3621" stroke-width="1.8" d="M1028.93,-238.01C1028.93,-238.01 901.65,-238.01 901.65,-238.01 895.65,-238.01 889.65,-232.01 889.65,-226.01 889.65,-226.01 889.65,-201.99 889.65,-201.99 889.65,-195.99 895.65,-189.99 901.65,-189.99 901.65,-189.99 1028.93,-189.99 1028.93,-189.99 1034.93,-189.99 1040.93,-195.99 1040.93,-201.99 1040.93,-201.99 1040.93,-226.01 1040.93,-226.01 1040.93,-232.01 1034.93,-238.01 1028.93,-238.01"/>
<text xml:space="preserve" text-anchor="start" x="902.29" y="-216.85" font-family="Helvetica,sans-Serif" font-weight="bold" font-size="12.00">Foundation Model API</text>
<text xml:space="preserve" text-anchor="start" x="927.79" y="-200.95" font-family="Helvetica,sans-Serif" font-size="9.00" fill="#666666">NLP Classification</text>
</g>
<!-- unity&#45;&gt;fmapi -->
<g id="edge3" class="edge">
<title>unity&#45;&gt;fmapi</title>
<path fill="none" stroke="#ff3621" stroke-width="1.5" d="M829.18,-182.75C844.55,-186.3 861.87,-190.31 878.85,-194.24"/>
<polygon fill="#ff3621" stroke="#ff3621" stroke-width="1.5" points="878.16,-196.95 886.58,-196.03 879.42,-191.49 878.16,-196.95"/>
</g>
</g>
</svg>
